<mxfile host="app.diagrams.net" modified="2021-11-19T01:51:41.626Z" agent="5.0 (Windows NT 10.0; Win64; x64) AppleWebKit/537.36 (KHTML, like Gecko) Chrome/95.0.4638.69 Safari/537.36" etag="VyuaF7FVvy3qi40Q2KN7" version="15.7.3" type="github">
  <diagram id="UNxXxtYj0WsU9yzxmoFA" name="Page-1">
    <mxGraphModel dx="1422" dy="1875" grid="1" gridSize="10" guides="1" tooltips="1" connect="1" arrows="1" fold="1" page="1" pageScale="1" pageWidth="827" pageHeight="1169" math="0" shadow="0">
      <root>
        <mxCell id="0" />
        <mxCell id="1" parent="0" />
        <mxCell id="PTkdsfFuJUA48d0vlGd0-5" value="" style="rounded=0;whiteSpace=wrap;html=1;fillColor=#CCC1D1;strokeColor=none;" parent="1" vertex="1">
          <mxGeometry x="80" y="130" width="790" height="580" as="geometry" />
        </mxCell>
        <mxCell id="PTkdsfFuJUA48d0vlGd0-4" value="" style="rounded=0;whiteSpace=wrap;html=1;fillColor=#e1d5e7;strokeColor=none;" parent="1" vertex="1">
          <mxGeometry x="80" y="130" width="790" height="360" as="geometry" />
        </mxCell>
        <mxCell id="O5nCJOj1cgYyCABjcvX4-1" value="&lt;h1&gt;注意事项：&lt;/h1&gt;&lt;p&gt;&lt;/p&gt;&lt;ol&gt;&lt;li&gt;老质检依然存在多版本代码，上线后可能有异常。&lt;/li&gt;&lt;li&gt;后台废弃多版本后，前端发代码当天可能有用户没有更新到最新代码，依然会报错。&lt;/li&gt;&lt;li&gt;。&lt;/li&gt;&lt;/ol&gt;&lt;p&gt;&lt;/p&gt;" style="text;html=1;strokeColor=none;fillColor=none;spacing=5;spacingTop=-20;whiteSpace=wrap;overflow=hidden;rounded=0;" parent="1" vertex="1">
          <mxGeometry x="827" y="-200" width="470" height="130" as="geometry" />
        </mxCell>
        <mxCell id="O5nCJOj1cgYyCABjcvX4-4" value="&lt;h1&gt;流程优化&lt;/h1&gt;&lt;p&gt;废弃&lt;/p&gt;" style="text;html=1;strokeColor=none;fillColor=none;spacing=5;spacingTop=-20;whiteSpace=wrap;overflow=hidden;rounded=0;" parent="1" vertex="1">
          <mxGeometry x="60" y="-200" width="510" height="120" as="geometry" />
        </mxCell>
        <mxCell id="R9xI7Zl-RxibI9JGirXU-6" style="edgeStyle=orthogonalEdgeStyle;rounded=0;orthogonalLoop=1;jettySize=auto;html=1;" edge="1" parent="1" source="R9xI7Zl-RxibI9JGirXU-4">
          <mxGeometry relative="1" as="geometry">
            <mxPoint x="160" y="240" as="targetPoint" />
            <Array as="points">
              <mxPoint x="379" y="150" />
              <mxPoint x="160" y="150" />
            </Array>
          </mxGeometry>
        </mxCell>
        <mxCell id="R9xI7Zl-RxibI9JGirXU-4" value="清除数据" style="rounded=1;whiteSpace=wrap;html=1;" vertex="1" parent="1">
          <mxGeometry x="324" y="80" width="110" height="40" as="geometry" />
        </mxCell>
        <mxCell id="4kRyxC5ff8gaBBJxYLAR-50" value="结束" style="rounded=1;whiteSpace=wrap;html=1;align=center;" parent="1" vertex="1">
          <mxGeometry x="100" y="740" width="120" height="40" as="geometry" />
        </mxCell>
        <mxCell id="4kRyxC5ff8gaBBJxYLAR-4" value="&lt;font style=&quot;vertical-align: inherit&quot;&gt;&lt;font style=&quot;vertical-align: inherit&quot;&gt;启动应用&lt;/font&gt;&lt;/font&gt;" style="rounded=1;whiteSpace=wrap;html=1;" parent="1" vertex="1">
          <mxGeometry x="100" y="10" width="120" height="40" as="geometry" />
        </mxCell>
        <mxCell id="4kRyxC5ff8gaBBJxYLAR-5" value="&lt;font style=&quot;vertical-align: inherit&quot;&gt;&lt;font style=&quot;vertical-align: inherit&quot;&gt;登录&lt;/font&gt;&lt;/font&gt;" style="rounded=0;whiteSpace=wrap;html=1;" parent="1" vertex="1">
          <mxGeometry x="100" y="80" width="120" height="40" as="geometry" />
        </mxCell>
        <mxCell id="4kRyxC5ff8gaBBJxYLAR-8" style="edgeStyle=orthogonalEdgeStyle;rounded=0;orthogonalLoop=1;jettySize=auto;html=1;exitX=0.5;exitY=1;exitDx=0;exitDy=0;entryX=0.5;entryY=0;entryDx=0;entryDy=0;" parent="1" source="4kRyxC5ff8gaBBJxYLAR-4" target="4kRyxC5ff8gaBBJxYLAR-5" edge="1">
          <mxGeometry x="150" y="110" as="geometry" />
        </mxCell>
        <mxCell id="4kRyxC5ff8gaBBJxYLAR-6" value="&lt;font style=&quot;vertical-align: inherit&quot;&gt;&lt;font style=&quot;vertical-align: inherit&quot;&gt;检查DB&lt;/font&gt;&lt;/font&gt;" style="rhombus;whiteSpace=wrap;html=1;rounded=0;" parent="1" vertex="1">
          <mxGeometry x="100" y="240" width="120" height="40" as="geometry" />
        </mxCell>
        <mxCell id="4kRyxC5ff8gaBBJxYLAR-7" value="" style="edgeStyle=orthogonalEdgeStyle;rounded=0;orthogonalLoop=1;jettySize=auto;html=1;entryX=0.5;entryY=0;entryDx=0;entryDy=0;" parent="1" source="4kRyxC5ff8gaBBJxYLAR-5" target="4kRyxC5ff8gaBBJxYLAR-6" edge="1">
          <mxGeometry x="150" y="110" as="geometry">
            <mxPoint x="160" y="220" as="targetPoint" />
            <Array as="points">
              <mxPoint x="160" y="190" />
              <mxPoint x="160" y="190" />
            </Array>
          </mxGeometry>
        </mxCell>
        <mxCell id="4kRyxC5ff8gaBBJxYLAR-9" value="&lt;font style=&quot;vertical-align: inherit&quot;&gt;&lt;font style=&quot;vertical-align: inherit&quot;&gt;老DB升级&lt;/font&gt;&lt;/font&gt;" style="whiteSpace=wrap;html=1;rounded=0;" parent="1" vertex="1">
          <mxGeometry x="100" y="420" width="120" height="40" as="geometry" />
        </mxCell>
        <mxCell id="4kRyxC5ff8gaBBJxYLAR-10" value="" style="edgeStyle=orthogonalEdgeStyle;rounded=0;orthogonalLoop=1;jettySize=auto;html=1;" parent="1" source="4kRyxC5ff8gaBBJxYLAR-6" target="4kRyxC5ff8gaBBJxYLAR-9" edge="1">
          <mxGeometry x="150" y="110" as="geometry" />
        </mxCell>
        <mxCell id="R9xI7Zl-RxibI9JGirXU-7" style="edgeStyle=orthogonalEdgeStyle;rounded=0;orthogonalLoop=1;jettySize=auto;html=1;entryX=0.5;entryY=0;entryDx=0;entryDy=0;" edge="1" parent="1" source="4kRyxC5ff8gaBBJxYLAR-11" target="4kRyxC5ff8gaBBJxYLAR-50">
          <mxGeometry relative="1" as="geometry" />
        </mxCell>
        <mxCell id="4kRyxC5ff8gaBBJxYLAR-11" value="&lt;font style=&quot;vertical-align: inherit&quot;&gt;&lt;font style=&quot;vertical-align: inherit&quot;&gt;新DB升级&lt;/font&gt;&lt;/font&gt;" style="whiteSpace=wrap;html=1;rounded=0;" parent="1" vertex="1">
          <mxGeometry x="100" y="580" width="120" height="40" as="geometry" />
        </mxCell>
        <mxCell id="4kRyxC5ff8gaBBJxYLAR-12" value="" style="edgeStyle=orthogonalEdgeStyle;rounded=0;orthogonalLoop=1;jettySize=auto;html=1;" parent="1" source="4kRyxC5ff8gaBBJxYLAR-9" target="4kRyxC5ff8gaBBJxYLAR-11" edge="1">
          <mxGeometry x="150" y="110" as="geometry" />
        </mxCell>
        <mxCell id="4kRyxC5ff8gaBBJxYLAR-15" value="&lt;font style=&quot;vertical-align: inherit&quot;&gt;&lt;font style=&quot;vertical-align: inherit&quot;&gt;&lt;font style=&quot;vertical-align: inherit&quot;&gt;&lt;font style=&quot;vertical-align: inherit&quot;&gt;&lt;font style=&quot;vertical-align: inherit&quot;&gt;&lt;font style=&quot;vertical-align: inherit&quot;&gt;&lt;font style=&quot;vertical-align: inherit&quot;&gt;&lt;font style=&quot;vertical-align: inherit&quot;&gt;创建数据库&lt;/font&gt;&lt;/font&gt;&lt;/font&gt;&lt;/font&gt;&lt;/font&gt;&lt;/font&gt;&lt;br&gt;&lt;font style=&quot;vertical-align: inherit&quot;&gt;&lt;font style=&quot;vertical-align: inherit&quot;&gt;&lt;font style=&quot;vertical-align: inherit&quot;&gt;&lt;font style=&quot;vertical-align: inherit&quot;&gt;&lt;font style=&quot;vertical-align: inherit&quot;&gt;&lt;font style=&quot;vertical-align: inherit&quot;&gt;template.db&lt;/font&gt;&lt;/font&gt;&lt;/font&gt;&lt;/font&gt;&lt;/font&gt;&lt;/font&gt;&lt;br&gt;&lt;/font&gt;&lt;/font&gt;" style="whiteSpace=wrap;html=1;rounded=0;" parent="1" vertex="1">
          <mxGeometry x="300" y="240" width="120" height="40" as="geometry" />
        </mxCell>
        <mxCell id="4kRyxC5ff8gaBBJxYLAR-16" value="" style="edgeStyle=orthogonalEdgeStyle;rounded=0;orthogonalLoop=1;jettySize=auto;html=1;" parent="1" source="4kRyxC5ff8gaBBJxYLAR-6" target="4kRyxC5ff8gaBBJxYLAR-15" edge="1">
          <mxGeometry x="150" y="110" as="geometry" />
        </mxCell>
        <mxCell id="4kRyxC5ff8gaBBJxYLAR-45" style="edgeStyle=orthogonalEdgeStyle;rounded=0;orthogonalLoop=1;jettySize=auto;html=1;exitX=0.5;exitY=1;exitDx=0;exitDy=0;entryX=0.5;entryY=0;entryDx=0;entryDy=0;" parent="1" source="4kRyxC5ff8gaBBJxYLAR-17" target="4kRyxC5ff8gaBBJxYLAR-9" edge="1">
          <mxGeometry x="150" y="110" as="geometry">
            <mxPoint x="210" y="370" as="targetPoint" />
            <Array as="points">
              <mxPoint x="560" y="310" />
              <mxPoint x="160" y="310" />
            </Array>
          </mxGeometry>
        </mxCell>
        <mxCell id="4kRyxC5ff8gaBBJxYLAR-17" value="&lt;font style=&quot;vertical-align: inherit&quot;&gt;&lt;font style=&quot;vertical-align: inherit&quot;&gt;检查表&lt;br&gt;_version&lt;br&gt;&lt;/font&gt;&lt;/font&gt;" style="rhombus;whiteSpace=wrap;html=1;rounded=0;" parent="1" vertex="1">
          <mxGeometry x="500" y="240" width="120" height="40" as="geometry" />
        </mxCell>
        <mxCell id="4kRyxC5ff8gaBBJxYLAR-18" value="" style="edgeStyle=orthogonalEdgeStyle;rounded=0;orthogonalLoop=1;jettySize=auto;html=1;" parent="1" source="4kRyxC5ff8gaBBJxYLAR-15" target="4kRyxC5ff8gaBBJxYLAR-17" edge="1">
          <mxGeometry x="150" y="110" as="geometry" />
        </mxCell>
        <mxCell id="4kRyxC5ff8gaBBJxYLAR-46" style="edgeStyle=orthogonalEdgeStyle;rounded=0;orthogonalLoop=1;jettySize=auto;html=1;exitX=1;exitY=0.5;exitDx=0;exitDy=0;entryX=0.5;entryY=0;entryDx=0;entryDy=0;" parent="1" source="4kRyxC5ff8gaBBJxYLAR-19" target="4kRyxC5ff8gaBBJxYLAR-9" edge="1">
          <mxGeometry x="150" y="110" as="geometry">
            <mxPoint x="160" y="320" as="targetPoint" />
            <Array as="points">
              <mxPoint x="840" y="260" />
              <mxPoint x="840" y="310" />
              <mxPoint x="160" y="310" />
            </Array>
          </mxGeometry>
        </mxCell>
        <mxCell id="4kRyxC5ff8gaBBJxYLAR-19" value="&lt;font style=&quot;vertical-align: inherit&quot;&gt;&lt;font style=&quot;vertical-align: inherit&quot;&gt;&lt;font style=&quot;vertical-align: inherit&quot;&gt;&lt;font style=&quot;vertical-align: inherit&quot;&gt;创建DB &lt;/font&gt;&lt;/font&gt;&lt;br&gt;&lt;font style=&quot;vertical-align: inherit&quot;&gt;&lt;font style=&quot;vertical-align: inherit&quot;&gt;initSqlDB&lt;/font&gt;&lt;/font&gt;&lt;br&gt;&lt;/font&gt;&lt;/font&gt;" style="whiteSpace=wrap;html=1;rounded=0;" parent="1" vertex="1">
          <mxGeometry x="700" y="240" width="120" height="40" as="geometry" />
        </mxCell>
        <mxCell id="4kRyxC5ff8gaBBJxYLAR-20" value="" style="edgeStyle=orthogonalEdgeStyle;rounded=0;orthogonalLoop=1;jettySize=auto;html=1;" parent="1" source="4kRyxC5ff8gaBBJxYLAR-17" target="4kRyxC5ff8gaBBJxYLAR-19" edge="1">
          <mxGeometry x="150" y="110" as="geometry" />
        </mxCell>
        <mxCell id="4kRyxC5ff8gaBBJxYLAR-43" style="edgeStyle=orthogonalEdgeStyle;rounded=0;orthogonalLoop=1;jettySize=auto;html=1;exitX=0.5;exitY=1;exitDx=0;exitDy=0;entryX=0.5;entryY=0;entryDx=0;entryDy=0;" parent="1" source="4kRyxC5ff8gaBBJxYLAR-22" target="4kRyxC5ff8gaBBJxYLAR-11" edge="1">
          <mxGeometry x="150" y="110" as="geometry">
            <mxPoint x="160" y="500" as="targetPoint" />
            <Array as="points">
              <mxPoint x="360" y="490" />
              <mxPoint x="160" y="490" />
            </Array>
          </mxGeometry>
        </mxCell>
        <mxCell id="4kRyxC5ff8gaBBJxYLAR-22" value="&lt;font style=&quot;vertical-align: inherit&quot;&gt;&lt;font style=&quot;vertical-align: inherit&quot;&gt;版本对比&lt;br&gt;是否升级&lt;br&gt;&lt;/font&gt;&lt;/font&gt;" style="rhombus;whiteSpace=wrap;html=1;rounded=0;" parent="1" vertex="1">
          <mxGeometry x="300" y="420" width="120" height="40" as="geometry" />
        </mxCell>
        <mxCell id="4kRyxC5ff8gaBBJxYLAR-23" value="" style="edgeStyle=orthogonalEdgeStyle;rounded=0;orthogonalLoop=1;jettySize=auto;html=1;" parent="1" source="4kRyxC5ff8gaBBJxYLAR-9" target="4kRyxC5ff8gaBBJxYLAR-22" edge="1">
          <mxGeometry x="150" y="110" as="geometry" />
        </mxCell>
        <mxCell id="R9xI7Zl-RxibI9JGirXU-10" style="edgeStyle=orthogonalEdgeStyle;rounded=0;orthogonalLoop=1;jettySize=auto;html=1;entryX=0.5;entryY=0;entryDx=0;entryDy=0;" edge="1" parent="1" source="4kRyxC5ff8gaBBJxYLAR-24" target="4kRyxC5ff8gaBBJxYLAR-50">
          <mxGeometry relative="1" as="geometry">
            <mxPoint x="160" y="730" as="targetPoint" />
            <Array as="points">
              <mxPoint x="360" y="670" />
              <mxPoint x="160" y="670" />
            </Array>
          </mxGeometry>
        </mxCell>
        <mxCell id="4kRyxC5ff8gaBBJxYLAR-24" value="&lt;font style=&quot;vertical-align: inherit&quot;&gt;&lt;font style=&quot;vertical-align: inherit&quot;&gt;版本对比&lt;br&gt;是否升级&lt;br&gt;&lt;/font&gt;&lt;/font&gt;" style="rhombus;whiteSpace=wrap;html=1;rounded=0;" parent="1" vertex="1">
          <mxGeometry x="300" y="580" width="120" height="40" as="geometry" />
        </mxCell>
        <mxCell id="4kRyxC5ff8gaBBJxYLAR-25" style="edgeStyle=orthogonalEdgeStyle;rounded=0;orthogonalLoop=1;jettySize=auto;html=1;exitX=1;exitY=0.5;exitDx=0;exitDy=0;entryX=0;entryY=0.5;entryDx=0;entryDy=0;" parent="1" source="4kRyxC5ff8gaBBJxYLAR-11" target="4kRyxC5ff8gaBBJxYLAR-24" edge="1">
          <mxGeometry x="150" y="110" as="geometry" />
        </mxCell>
        <mxCell id="4kRyxC5ff8gaBBJxYLAR-26" value="&lt;font style=&quot;vertical-align: inherit&quot;&gt;&lt;font style=&quot;vertical-align: inherit&quot;&gt;否&lt;/font&gt;&lt;/font&gt;" style="text;html=1;strokeColor=#b85450;fillColor=#f8cecc;align=center;verticalAlign=middle;whiteSpace=wrap;rounded=0;" parent="1" vertex="1">
          <mxGeometry x="230" y="240" width="40" height="20" as="geometry" />
        </mxCell>
        <mxCell id="4kRyxC5ff8gaBBJxYLAR-27" value="&lt;font style=&quot;vertical-align: inherit&quot;&gt;&lt;font style=&quot;vertical-align: inherit&quot;&gt;是&lt;/font&gt;&lt;/font&gt;" style="text;html=1;strokeColor=#82b366;fillColor=#d5e8d4;align=center;verticalAlign=middle;whiteSpace=wrap;rounded=0;" parent="1" vertex="1">
          <mxGeometry x="160" y="280" width="40" height="20" as="geometry" />
        </mxCell>
        <mxCell id="4kRyxC5ff8gaBBJxYLAR-29" value="&lt;font style=&quot;vertical-align: inherit&quot;&gt;&lt;font style=&quot;vertical-align: inherit&quot;&gt;写入本地数据库版本号&lt;br&gt;_version表version字段&lt;br&gt;global_storage表db-version&lt;br&gt;&lt;/font&gt;&lt;/font&gt;" style="ellipse;shape=cloud;whiteSpace=wrap;html=1;align=center;fontStyle=3" parent="1" vertex="1">
          <mxGeometry x="257" y="150" width="206" height="80" as="geometry" />
        </mxCell>
        <mxCell id="4kRyxC5ff8gaBBJxYLAR-31" value="&lt;font style=&quot;vertical-align: inherit&quot;&gt;&lt;font style=&quot;vertical-align: inherit&quot;&gt;_version表version字段对比&lt;br&gt;app版本+热更新version_code&lt;br&gt;&lt;/font&gt;&lt;/font&gt;" style="ellipse;shape=cloud;whiteSpace=wrap;html=1;align=center;fontStyle=3" parent="1" vertex="1">
          <mxGeometry x="257" y="330" width="206" height="80" as="geometry" />
        </mxCell>
        <mxCell id="4kRyxC5ff8gaBBJxYLAR-32" value="&lt;font style=&quot;vertical-align: inherit&quot;&gt;&lt;font style=&quot;vertical-align: inherit&quot;&gt;global_storage,db-version&lt;br&gt;对比application.js版本&lt;br&gt;&lt;/font&gt;&lt;/font&gt;" style="ellipse;shape=cloud;whiteSpace=wrap;html=1;align=center;fontStyle=3" parent="1" vertex="1">
          <mxGeometry x="257" y="500" width="206" height="80" as="geometry" />
        </mxCell>
        <mxCell id="4kRyxC5ff8gaBBJxYLAR-35" value="执行升级" style="whiteSpace=wrap;html=1;rounded=0;" parent="1" vertex="1">
          <mxGeometry x="500" y="420" width="120" height="40" as="geometry" />
        </mxCell>
        <mxCell id="4kRyxC5ff8gaBBJxYLAR-36" value="" style="edgeStyle=orthogonalEdgeStyle;rounded=0;orthogonalLoop=1;jettySize=auto;html=1;" parent="1" source="4kRyxC5ff8gaBBJxYLAR-22" target="4kRyxC5ff8gaBBJxYLAR-35" edge="1">
          <mxGeometry x="150" y="110" as="geometry" />
        </mxCell>
        <mxCell id="4kRyxC5ff8gaBBJxYLAR-44" style="edgeStyle=orthogonalEdgeStyle;rounded=0;orthogonalLoop=1;jettySize=auto;html=1;exitX=1;exitY=0.5;exitDx=0;exitDy=0;" parent="1" source="4kRyxC5ff8gaBBJxYLAR-37" edge="1">
          <mxGeometry x="150" y="110" as="geometry">
            <mxPoint x="160" y="580" as="targetPoint" />
            <Array as="points">
              <mxPoint x="840" y="440" />
              <mxPoint x="840" y="490" />
              <mxPoint x="160" y="490" />
            </Array>
          </mxGeometry>
        </mxCell>
        <mxCell id="4kRyxC5ff8gaBBJxYLAR-37" value="写入老质检版本" style="whiteSpace=wrap;html=1;rounded=0;" parent="1" vertex="1">
          <mxGeometry x="700" y="420" width="120" height="40" as="geometry" />
        </mxCell>
        <mxCell id="4kRyxC5ff8gaBBJxYLAR-38" value="" style="edgeStyle=orthogonalEdgeStyle;rounded=0;orthogonalLoop=1;jettySize=auto;html=1;" parent="1" source="4kRyxC5ff8gaBBJxYLAR-35" target="4kRyxC5ff8gaBBJxYLAR-37" edge="1">
          <mxGeometry x="150" y="110" as="geometry" />
        </mxCell>
        <mxCell id="4kRyxC5ff8gaBBJxYLAR-39" value="执行升级" style="whiteSpace=wrap;html=1;rounded=0;" parent="1" vertex="1">
          <mxGeometry x="500" y="580" width="120" height="40" as="geometry" />
        </mxCell>
        <mxCell id="4kRyxC5ff8gaBBJxYLAR-40" value="" style="edgeStyle=orthogonalEdgeStyle;rounded=0;orthogonalLoop=1;jettySize=auto;html=1;" parent="1" source="4kRyxC5ff8gaBBJxYLAR-24" target="4kRyxC5ff8gaBBJxYLAR-39" edge="1">
          <mxGeometry x="150" y="110" as="geometry" />
        </mxCell>
        <mxCell id="R9xI7Zl-RxibI9JGirXU-9" style="edgeStyle=orthogonalEdgeStyle;rounded=0;orthogonalLoop=1;jettySize=auto;html=1;" edge="1" parent="1" source="4kRyxC5ff8gaBBJxYLAR-41">
          <mxGeometry relative="1" as="geometry">
            <mxPoint x="160" y="740" as="targetPoint" />
            <Array as="points">
              <mxPoint x="850" y="600" />
              <mxPoint x="850" y="670" />
              <mxPoint x="160" y="670" />
            </Array>
          </mxGeometry>
        </mxCell>
        <mxCell id="4kRyxC5ff8gaBBJxYLAR-41" value="写入超级APP版本" style="whiteSpace=wrap;html=1;rounded=0;" parent="1" vertex="1">
          <mxGeometry x="700" y="580" width="120" height="40" as="geometry" />
        </mxCell>
        <mxCell id="4kRyxC5ff8gaBBJxYLAR-42" value="" style="edgeStyle=orthogonalEdgeStyle;rounded=0;orthogonalLoop=1;jettySize=auto;html=1;" parent="1" source="4kRyxC5ff8gaBBJxYLAR-39" target="4kRyxC5ff8gaBBJxYLAR-41" edge="1">
          <mxGeometry x="150" y="110" as="geometry" />
        </mxCell>
        <mxCell id="4kRyxC5ff8gaBBJxYLAR-48" value="&lt;font style=&quot;vertical-align: inherit&quot;&gt;&lt;font style=&quot;vertical-align: inherit&quot;&gt;不存在&lt;/font&gt;&lt;/font&gt;" style="text;html=1;strokeColor=#b85450;fillColor=#f8cecc;align=center;verticalAlign=middle;whiteSpace=wrap;rounded=0;" parent="1" vertex="1">
          <mxGeometry x="640" y="240" width="40" height="20" as="geometry" />
        </mxCell>
        <mxCell id="4kRyxC5ff8gaBBJxYLAR-49" value="&lt;font style=&quot;vertical-align: inherit&quot;&gt;&lt;font style=&quot;vertical-align: inherit&quot;&gt;否&lt;/font&gt;&lt;/font&gt;" style="text;html=1;strokeColor=#b85450;fillColor=#f8cecc;align=center;verticalAlign=middle;whiteSpace=wrap;rounded=0;" parent="1" vertex="1">
          <mxGeometry x="314" y="460" width="40" height="20" as="geometry" />
        </mxCell>
        <mxCell id="4kRyxC5ff8gaBBJxYLAR-62" value="&lt;font style=&quot;vertical-align: inherit&quot;&gt;&lt;font style=&quot;vertical-align: inherit&quot;&gt;是&lt;/font&gt;&lt;/font&gt;" style="text;html=1;strokeColor=#82b366;fillColor=#d5e8d4;align=center;verticalAlign=middle;whiteSpace=wrap;rounded=0;" parent="1" vertex="1">
          <mxGeometry x="434" y="420" width="40" height="20" as="geometry" />
        </mxCell>
        <mxCell id="4kRyxC5ff8gaBBJxYLAR-63" value="&lt;font style=&quot;vertical-align: inherit&quot;&gt;&lt;font style=&quot;vertical-align: inherit&quot;&gt;是&lt;/font&gt;&lt;/font&gt;" style="text;html=1;strokeColor=#82b366;fillColor=#d5e8d4;align=center;verticalAlign=middle;whiteSpace=wrap;rounded=0;" parent="1" vertex="1">
          <mxGeometry x="434" y="580" width="40" height="20" as="geometry" />
        </mxCell>
        <mxCell id="4kRyxC5ff8gaBBJxYLAR-64" value="&lt;font style=&quot;vertical-align: inherit&quot;&gt;&lt;font style=&quot;vertical-align: inherit&quot;&gt;否&lt;/font&gt;&lt;/font&gt;" style="text;html=1;strokeColor=#b85450;fillColor=#f8cecc;align=center;verticalAlign=middle;whiteSpace=wrap;rounded=0;" parent="1" vertex="1">
          <mxGeometry x="324" y="630" width="30" height="20" as="geometry" />
        </mxCell>
        <mxCell id="4kRyxC5ff8gaBBJxYLAR-66" value="&lt;font style=&quot;vertical-align: inherit&quot;&gt;&lt;font style=&quot;vertical-align: inherit&quot;&gt;存在&lt;/font&gt;&lt;/font&gt;" style="text;html=1;strokeColor=#82b366;fillColor=#d5e8d4;align=center;verticalAlign=middle;whiteSpace=wrap;rounded=0;" parent="1" vertex="1">
          <mxGeometry x="510" y="280" width="40" height="20" as="geometry" />
        </mxCell>
        <mxCell id="R9xI7Zl-RxibI9JGirXU-11" value="不同请求方式下的版本参数" style="shape=table;startSize=30;container=1;collapsible=0;childLayout=tableLayout;fontStyle=1;align=center;pointerEvents=1;" vertex="1" parent="1">
          <mxGeometry x="930" y="130" width="582" height="393" as="geometry" />
        </mxCell>
        <mxCell id="R9xI7Zl-RxibI9JGirXU-36" style="shape=partialRectangle;html=1;whiteSpace=wrap;collapsible=0;dropTarget=0;pointerEvents=0;fillColor=none;top=0;left=0;bottom=0;right=0;points=[[0,0.5],[1,0.5]];portConstraint=eastwest;" vertex="1" parent="R9xI7Zl-RxibI9JGirXU-11">
          <mxGeometry y="30" width="582" height="63" as="geometry" />
        </mxCell>
        <mxCell id="R9xI7Zl-RxibI9JGirXU-37" style="shape=partialRectangle;html=1;whiteSpace=wrap;connectable=0;fillColor=none;top=0;left=0;bottom=0;right=0;overflow=hidden;pointerEvents=1;" vertex="1" parent="R9xI7Zl-RxibI9JGirXU-36">
          <mxGeometry width="190" height="63" as="geometry">
            <mxRectangle width="190" height="63" as="alternateBounds" />
          </mxGeometry>
        </mxCell>
        <mxCell id="R9xI7Zl-RxibI9JGirXU-38" value="质检APP" style="shape=partialRectangle;html=1;whiteSpace=wrap;connectable=0;fillColor=none;top=0;left=0;bottom=0;right=0;overflow=hidden;pointerEvents=1;" vertex="1" parent="R9xI7Zl-RxibI9JGirXU-36">
          <mxGeometry x="190" width="198" height="63" as="geometry">
            <mxRectangle width="198" height="63" as="alternateBounds" />
          </mxGeometry>
        </mxCell>
        <mxCell id="R9xI7Zl-RxibI9JGirXU-39" value="超级APP" style="shape=partialRectangle;html=1;whiteSpace=wrap;connectable=0;fillColor=none;top=0;left=0;bottom=0;right=0;overflow=hidden;pointerEvents=1;" vertex="1" parent="R9xI7Zl-RxibI9JGirXU-36">
          <mxGeometry x="388" width="194" height="63" as="geometry">
            <mxRectangle width="194" height="63" as="alternateBounds" />
          </mxGeometry>
        </mxCell>
        <mxCell id="R9xI7Zl-RxibI9JGirXU-30" style="shape=partialRectangle;html=1;whiteSpace=wrap;collapsible=0;dropTarget=0;pointerEvents=0;fillColor=none;top=0;left=0;bottom=0;right=0;points=[[0,0.5],[1,0.5]];portConstraint=eastwest;" vertex="1" parent="R9xI7Zl-RxibI9JGirXU-11">
          <mxGeometry y="93" width="582" height="50" as="geometry" />
        </mxCell>
        <mxCell id="R9xI7Zl-RxibI9JGirXU-31" value="数据上传&lt;br&gt;（uploadData）" style="shape=partialRectangle;html=1;whiteSpace=wrap;connectable=0;fillColor=none;top=0;left=0;bottom=0;right=0;overflow=hidden;pointerEvents=1;" vertex="1" parent="R9xI7Zl-RxibI9JGirXU-30">
          <mxGeometry width="190" height="50" as="geometry">
            <mxRectangle width="190" height="50" as="alternateBounds" />
          </mxGeometry>
        </mxCell>
        <mxCell id="R9xI7Zl-RxibI9JGirXU-32" value="app_version" style="shape=partialRectangle;html=1;whiteSpace=wrap;connectable=0;fillColor=none;top=0;left=0;bottom=0;right=0;overflow=hidden;pointerEvents=1;" vertex="1" parent="R9xI7Zl-RxibI9JGirXU-30">
          <mxGeometry x="190" width="198" height="50" as="geometry">
            <mxRectangle width="198" height="50" as="alternateBounds" />
          </mxGeometry>
        </mxCell>
        <mxCell id="R9xI7Zl-RxibI9JGirXU-33" value="app_version&lt;br&gt;hot_updatre_version" style="shape=partialRectangle;html=1;whiteSpace=wrap;connectable=0;fillColor=none;top=0;left=0;bottom=0;right=0;overflow=hidden;pointerEvents=1;" vertex="1" parent="R9xI7Zl-RxibI9JGirXU-30">
          <mxGeometry x="388" width="194" height="50" as="geometry">
            <mxRectangle width="194" height="50" as="alternateBounds" />
          </mxGeometry>
        </mxCell>
        <mxCell id="R9xI7Zl-RxibI9JGirXU-12" value="" style="shape=partialRectangle;html=1;whiteSpace=wrap;collapsible=0;dropTarget=0;pointerEvents=0;fillColor=none;top=0;left=0;bottom=0;right=0;points=[[0,0.5],[1,0.5]];portConstraint=eastwest;" vertex="1" parent="R9xI7Zl-RxibI9JGirXU-11">
          <mxGeometry y="143" width="582" height="50" as="geometry" />
        </mxCell>
        <mxCell id="R9xI7Zl-RxibI9JGirXU-27" value="单条下载&lt;br&gt;（downLoadSingleData）" style="shape=partialRectangle;html=1;whiteSpace=wrap;connectable=0;fillColor=none;top=0;left=0;bottom=0;right=0;overflow=hidden;pointerEvents=1;" vertex="1" parent="R9xI7Zl-RxibI9JGirXU-12">
          <mxGeometry width="190" height="50" as="geometry">
            <mxRectangle width="190" height="50" as="alternateBounds" />
          </mxGeometry>
        </mxCell>
        <mxCell id="R9xI7Zl-RxibI9JGirXU-24" value="&lt;span&gt;app_version&lt;/span&gt;" style="shape=partialRectangle;html=1;whiteSpace=wrap;connectable=0;fillColor=none;top=0;left=0;bottom=0;right=0;overflow=hidden;pointerEvents=1;" vertex="1" parent="R9xI7Zl-RxibI9JGirXU-12">
          <mxGeometry x="190" width="198" height="50" as="geometry">
            <mxRectangle width="198" height="50" as="alternateBounds" />
          </mxGeometry>
        </mxCell>
        <mxCell id="R9xI7Zl-RxibI9JGirXU-13" value="&lt;span&gt;app_version&lt;/span&gt;&lt;br&gt;&lt;span&gt;hot_updatre_version&lt;/span&gt;" style="shape=partialRectangle;html=1;whiteSpace=wrap;connectable=0;fillColor=none;top=0;left=0;bottom=0;right=0;overflow=hidden;pointerEvents=1;" vertex="1" parent="R9xI7Zl-RxibI9JGirXU-12">
          <mxGeometry x="388" width="194" height="50" as="geometry">
            <mxRectangle width="194" height="50" as="alternateBounds" />
          </mxGeometry>
        </mxCell>
        <mxCell id="R9xI7Zl-RxibI9JGirXU-16" value="" style="shape=partialRectangle;html=1;whiteSpace=wrap;collapsible=0;dropTarget=0;pointerEvents=0;fillColor=none;top=0;left=0;bottom=0;right=0;points=[[0,0.5],[1,0.5]];portConstraint=eastwest;" vertex="1" parent="R9xI7Zl-RxibI9JGirXU-11">
          <mxGeometry y="193" width="582" height="50" as="geometry" />
        </mxCell>
        <mxCell id="R9xI7Zl-RxibI9JGirXU-28" value="postI" style="shape=partialRectangle;html=1;whiteSpace=wrap;connectable=0;fillColor=none;top=0;left=0;bottom=0;right=0;overflow=hidden;pointerEvents=1;" vertex="1" parent="R9xI7Zl-RxibI9JGirXU-16">
          <mxGeometry width="190" height="50" as="geometry">
            <mxRectangle width="190" height="50" as="alternateBounds" />
          </mxGeometry>
        </mxCell>
        <mxCell id="R9xI7Zl-RxibI9JGirXU-25" value="&lt;span&gt;app_version&lt;/span&gt;" style="shape=partialRectangle;html=1;whiteSpace=wrap;connectable=0;fillColor=none;top=0;left=0;bottom=0;right=0;overflow=hidden;pointerEvents=1;" vertex="1" parent="R9xI7Zl-RxibI9JGirXU-16">
          <mxGeometry x="190" width="198" height="50" as="geometry">
            <mxRectangle width="198" height="50" as="alternateBounds" />
          </mxGeometry>
        </mxCell>
        <mxCell id="R9xI7Zl-RxibI9JGirXU-17" value="&lt;span&gt;app_version&lt;/span&gt;&lt;br&gt;&lt;span&gt;hot_updatre_version&lt;/span&gt;" style="shape=partialRectangle;html=1;whiteSpace=wrap;connectable=0;fillColor=none;top=0;left=0;bottom=0;right=0;overflow=hidden;pointerEvents=1;" vertex="1" parent="R9xI7Zl-RxibI9JGirXU-16">
          <mxGeometry x="388" width="194" height="50" as="geometry">
            <mxRectangle width="194" height="50" as="alternateBounds" />
          </mxGeometry>
        </mxCell>
        <mxCell id="R9xI7Zl-RxibI9JGirXU-20" value="" style="shape=partialRectangle;html=1;whiteSpace=wrap;collapsible=0;dropTarget=0;pointerEvents=0;fillColor=none;top=0;left=0;bottom=0;right=0;points=[[0,0.5],[1,0.5]];portConstraint=eastwest;" vertex="1" parent="R9xI7Zl-RxibI9JGirXU-11">
          <mxGeometry y="243" width="582" height="50" as="geometry" />
        </mxCell>
        <mxCell id="R9xI7Zl-RxibI9JGirXU-29" value="request" style="shape=partialRectangle;html=1;whiteSpace=wrap;connectable=0;fillColor=none;top=0;left=0;bottom=0;right=0;overflow=hidden;pointerEvents=1;" vertex="1" parent="R9xI7Zl-RxibI9JGirXU-20">
          <mxGeometry width="190" height="50" as="geometry">
            <mxRectangle width="190" height="50" as="alternateBounds" />
          </mxGeometry>
        </mxCell>
        <mxCell id="R9xI7Zl-RxibI9JGirXU-26" value="&lt;span&gt;app_version&lt;/span&gt;" style="shape=partialRectangle;html=1;whiteSpace=wrap;connectable=0;fillColor=none;top=0;left=0;bottom=0;right=0;overflow=hidden;pointerEvents=1;" vertex="1" parent="R9xI7Zl-RxibI9JGirXU-20">
          <mxGeometry x="190" width="198" height="50" as="geometry">
            <mxRectangle width="198" height="50" as="alternateBounds" />
          </mxGeometry>
        </mxCell>
        <mxCell id="R9xI7Zl-RxibI9JGirXU-21" value="&lt;span&gt;app_version&lt;/span&gt;&lt;br&gt;&lt;span&gt;hot_updatre_version&lt;/span&gt;" style="shape=partialRectangle;html=1;whiteSpace=wrap;connectable=0;fillColor=none;top=0;left=0;bottom=0;right=0;overflow=hidden;pointerEvents=1;" vertex="1" parent="R9xI7Zl-RxibI9JGirXU-20">
          <mxGeometry x="388" width="194" height="50" as="geometry">
            <mxRectangle width="194" height="50" as="alternateBounds" />
          </mxGeometry>
        </mxCell>
        <mxCell id="R9xI7Zl-RxibI9JGirXU-49" style="shape=partialRectangle;html=1;whiteSpace=wrap;collapsible=0;dropTarget=0;pointerEvents=0;fillColor=none;top=0;left=0;bottom=0;right=0;points=[[0,0.5],[1,0.5]];portConstraint=eastwest;" vertex="1" parent="R9xI7Zl-RxibI9JGirXU-11">
          <mxGeometry y="293" width="582" height="50" as="geometry" />
        </mxCell>
        <mxCell id="R9xI7Zl-RxibI9JGirXU-50" value="buildurl" style="shape=partialRectangle;html=1;whiteSpace=wrap;connectable=0;fillColor=none;top=0;left=0;bottom=0;right=0;overflow=hidden;pointerEvents=1;" vertex="1" parent="R9xI7Zl-RxibI9JGirXU-49">
          <mxGeometry width="190" height="50" as="geometry">
            <mxRectangle width="190" height="50" as="alternateBounds" />
          </mxGeometry>
        </mxCell>
        <mxCell id="R9xI7Zl-RxibI9JGirXU-51" value="&lt;span&gt;app_version&lt;/span&gt;" style="shape=partialRectangle;html=1;whiteSpace=wrap;connectable=0;fillColor=none;top=0;left=0;bottom=0;right=0;overflow=hidden;pointerEvents=1;" vertex="1" parent="R9xI7Zl-RxibI9JGirXU-49">
          <mxGeometry x="190" width="198" height="50" as="geometry">
            <mxRectangle width="198" height="50" as="alternateBounds" />
          </mxGeometry>
        </mxCell>
        <mxCell id="R9xI7Zl-RxibI9JGirXU-52" value="&lt;span&gt;app_version&lt;/span&gt;&lt;br&gt;&lt;span&gt;hot_updatre_version&lt;/span&gt;" style="shape=partialRectangle;html=1;whiteSpace=wrap;connectable=0;fillColor=none;top=0;left=0;bottom=0;right=0;overflow=hidden;pointerEvents=1;" vertex="1" parent="R9xI7Zl-RxibI9JGirXU-49">
          <mxGeometry x="388" width="194" height="50" as="geometry">
            <mxRectangle width="194" height="50" as="alternateBounds" />
          </mxGeometry>
        </mxCell>
        <mxCell id="R9xI7Zl-RxibI9JGirXU-53" style="shape=partialRectangle;html=1;whiteSpace=wrap;collapsible=0;dropTarget=0;pointerEvents=0;fillColor=none;top=0;left=0;bottom=0;right=0;points=[[0,0.5],[1,0.5]];portConstraint=eastwest;" vertex="1" parent="R9xI7Zl-RxibI9JGirXU-11">
          <mxGeometry y="343" width="582" height="50" as="geometry" />
        </mxCell>
        <mxCell id="R9xI7Zl-RxibI9JGirXU-54" value="post" style="shape=partialRectangle;html=1;whiteSpace=wrap;connectable=0;fillColor=none;top=0;left=0;bottom=0;right=0;overflow=hidden;pointerEvents=1;" vertex="1" parent="R9xI7Zl-RxibI9JGirXU-53">
          <mxGeometry width="190" height="50" as="geometry">
            <mxRectangle width="190" height="50" as="alternateBounds" />
          </mxGeometry>
        </mxCell>
        <mxCell id="R9xI7Zl-RxibI9JGirXU-55" value="&lt;span&gt;app_version&lt;/span&gt;" style="shape=partialRectangle;html=1;whiteSpace=wrap;connectable=0;fillColor=none;top=0;left=0;bottom=0;right=0;overflow=hidden;pointerEvents=1;" vertex="1" parent="R9xI7Zl-RxibI9JGirXU-53">
          <mxGeometry x="190" width="198" height="50" as="geometry">
            <mxRectangle width="198" height="50" as="alternateBounds" />
          </mxGeometry>
        </mxCell>
        <mxCell id="R9xI7Zl-RxibI9JGirXU-56" value="&lt;span&gt;app_version&lt;/span&gt;&lt;br&gt;&lt;span&gt;hot_updatre_version&lt;/span&gt;" style="shape=partialRectangle;html=1;whiteSpace=wrap;connectable=0;fillColor=none;top=0;left=0;bottom=0;right=0;overflow=hidden;pointerEvents=1;" vertex="1" parent="R9xI7Zl-RxibI9JGirXU-53">
          <mxGeometry x="388" width="194" height="50" as="geometry">
            <mxRectangle width="194" height="50" as="alternateBounds" />
          </mxGeometry>
        </mxCell>
        <mxCell id="R9xI7Zl-RxibI9JGirXU-46" value="" style="endArrow=none;html=1;rounded=0;entryX=0.328;entryY=-0.041;entryDx=0;entryDy=0;entryPerimeter=0;endFill=0;" edge="1" parent="R9xI7Zl-RxibI9JGirXU-11" target="R9xI7Zl-RxibI9JGirXU-30">
          <mxGeometry width="50" height="50" relative="1" as="geometry">
            <mxPoint x="2" y="31" as="sourcePoint" />
            <mxPoint x="70" y="40" as="targetPoint" />
          </mxGeometry>
        </mxCell>
        <mxCell id="R9xI7Zl-RxibI9JGirXU-47" value="终端" style="text;html=1;strokeColor=none;fillColor=none;align=center;verticalAlign=middle;whiteSpace=wrap;rounded=0;" vertex="1" parent="1">
          <mxGeometry x="1060" y="160" width="60" height="30" as="geometry" />
        </mxCell>
        <mxCell id="R9xI7Zl-RxibI9JGirXU-48" value="请求场景" style="text;html=1;strokeColor=none;fillColor=none;align=center;verticalAlign=middle;whiteSpace=wrap;rounded=0;" vertex="1" parent="1">
          <mxGeometry x="930" y="190" width="60" height="30" as="geometry" />
        </mxCell>
      </root>
    </mxGraphModel>
  </diagram>
</mxfile>
